<svg xmlns="http://www.w3.org/2000/svg" width="1024" height="1024" viewBox="0 0 1024 1024">
<g>
<path d="M 305.42,428.68 L 305.71,429.81 L 306.26,430.80 L 306.35,430.88 L 306.89,431.03 L 307.21,431.10 L 308.19,431.25 L 308.73,431.32 L 310.10,431.45 L 310.84,431.52 L 312.58,431.64 L 313.49,431.70 L 315.56,431.81 L 316.63,431.87 L 318.99,431.96 L 327.01,432.17 L 328.19,432.19 L 330.34,432.23 L 331.38,432.25 L 333.28,432.29 L 335.12,432.32 L 338.12,432.41 L 339.52,432.46 L 341.78,432.58 L 342.83,432.64 L 344.52,432.82 L 345.31,432.92 L 346.60,433.17 L 347.21,433.30 L 348.28,433.65 L 351.50,435.16 L 352.88,435.89 L 355.96,438.02 L 356.70,438.56 L 358.03,439.65 L 359.65,441.16 L 359.96,441.49 L 360.85,442.59 L 361.33,443.21 L 362.52,444.82 L 363.15,445.69 L 364.61,447.75 L 365.36,448.83 L 367.02,451.25 L 367.87,452.50 L 369.69,455.22 L 370.62,456.60 L 372.55,459.53 L 374.51,462.49 L 378.53,468.73 L 380.54,471.85 L 384.37,477.94 L 385.30,479.43 L 387.06,482.27 L 387.91,483.66 L 389.48,486.26 L 390.24,487.52 L 391.58,489.79 L 392.22,490.87 L 393.28,492.75 L 393.77,493.63 L 394.49,495.02 L 395.16,496.50 L 395.55,497.58 L 396.09,500.08 L 396.21,500.79 L 396.22,500.95 L 396.08,500.13 L 396.00,500.00 L 395.78,500.15 L 395.64,500.75 L 395.58,501.31 L 395.46,502.60 L 395.41,503.50 L 395.31,505.46 L 395.27,506.69 L 395.19,509.31 L 395.16,510.87 L 395.11,514.16 L 395.08,516.04 L 395.05,519.98 L 395.03,522.19 L 395.02,526.78 L 395.02,529.31 L 395.02,534.23 L 395.03,536.45 L 395.05,540.74 L 395.07,542.64 L 395.12,546.30 L 395.15,547.88 L 395.22,550.90 L 395.26,552.17 L 395.34,554.53 L 395.40,555.48 L 395.50,557.19 L 395.57,557.81 L 395.70,558.87 L 395.77,559.15 L 395.88,559.44 L 395.62,560.38 L 395.35,561.20 L 394.65,562.51 L 394.26,563.13 L 393.30,564.25 L 391.52,566.00 L 390.91,566.56 L 389.79,567.35 L 389.20,567.70 L 387.67,568.15 L 387.24,568.25 L 386.21,568.40 L 385.65,568.47 L 384.33,568.59 L 383.62,568.64 L 381.93,568.72 L 378.92,568.84 L 377.56,568.89 L 375.07,568.99 L 373.88,569.05 L 371.91,569.15 L 371.02,569.20 L 369.78,569.30 L 369.00,569.41 L 369.00,569.44 L 368.91,569.96 L 368.86,570.29 L 368.68,571.30 L 368.58,571.85 L 368.33,573.22 L 367.91,575.52 L 367.63,577.07 L 366.75,580.13 L 366.27,581.65 L 365.02,584.62 L 364.36,586.10 L 362.79,588.93 L 361.97,590.33 L 360.10,592.97 L 359.14,594.27 L 357.02,596.67 L 355.94,597.83 L 353.61,599.94 L 352.42,600.95 L 349.91,602.72 L 346.00,604.91 L 344.79,605.48 L 342.76,606.27 L 341.75,606.62 L 339.64,607.06 L 338.52,607.24 L 335.71,607.41 L 334.93,607.45 L 333.13,607.48 L 330.00,607.50 L 328.80,607.50 L 326.75,607.48 L 325.79,607.47 L 324.14,607.42 L 323.36,607.39 L 322.02,607.28 L 321.37,607.22 L 320.24,607.04 L 319.14,606.84 L 317.15,606.16 L 313.72,604.57 L 312.46,603.94 L 310.01,602.36 L 308.80,601.53 L 306.49,599.61 L 305.35,598.61 L 303.23,596.42 L 302.19,595.29 L 300.30,592.88 L 299.38,591.66 L 297.77,589.11 L 297.01,587.82 L 295.73,585.18 L 295.13,583.86 L 294.23,581.21 L 293.36,577.29 L 293.22,576.24 L 292.67,573.95 L 292.53,573.40 L 292.22,572.42 L 291.75,571.25 L 290.66,569.00 L 224.32,569.00 L 223.06,574.75 L 222.69,576.48 L 221.67,579.83 L 221.12,581.49 L 219.78,584.66 L 219.07,586.22 L 217.42,589.18 L 216.57,590.63 L 214.66,593.33 L 213.67,594.65 L 211.52,597.06 L 210.42,598.22 L 208.06,600.30 L 206.86,601.30 L 204.31,603.01 L 200.32,605.12 L 199.45,605.50 L 197.41,606.14 L 196.34,606.44 L 194.00,606.93 L 191.59,607.37 L 186.34,607.74 L 183.71,607.85 L 178.67,607.52 L 177.47,607.40 L 175.25,607.01 L 174.19,606.79 L 172.34,606.21 L 170.69,605.62 L 167.56,604.09 L 166.03,603.26 L 163.16,601.29 L 161.76,600.26 L 159.18,597.90 L 157.93,596.67 L 155.67,593.96 L 154.59,592.57 L 152.69,589.56 L 151.80,588.02 L 150.29,584.76 L 149.60,583.10 L 148.52,579.61 L 147.43,574.20 L 146.76,569.15 L 133.90,568.83 L 132.34,568.79 L 129.74,568.71 L 128.53,568.68 L 126.55,568.59 L 125.63,568.54 L 124.16,568.42 L 123.48,568.35 L 122.40,568.17 L 121.40,567.97 L 120.09,567.31 L 118.27,565.73 L 115.50,562.96 L 114.85,542.73 L 114.83,542.03 L 114.78,540.38 L 114.76,539.52 L 114.72,537.55 L 114.70,536.52 L 114.65,534.26 L 114.63,533.09 L 114.59,530.55 L 114.55,527.95 L 114.54,527.09 L 114.58,527.75 L 114.60,527.97 L 114.64,528.31 L 114.67,528.33 L 114.87,528.38 L 115.21,528.40 L 116.04,528.45 L 116.68,528.47 L 118.10,528.51 L 119.02,528.53 L 121.00,528.57 L 122.19,528.59 L 124.70,528.63 L 126.14,528.65 L 129.14,528.69 L 130.82,528.70 L 134.29,528.74 L 136.19,528.76 L 140.09,528.79 L 142.19,528.80 L 146.49,528.83 L 148.78,528.84 L 153.45,528.87 L 155.91,528.88 L 160.92,528.91 L 163.54,528.92 L 168.85,528.93 L 171.61,528.94 L 182.92,528.97 L 188.91,528.98 L 201.09,528.99 L 207.42,528.99 L 299.50,528.99 L 301.75,525.68 L 303.34,523.00 L 303.71,522.22 L 303.82,521.91 L 304.00,521.35 L 304.00,521.19 L 304.30,520.35 L 304.74,520.00 L 305.02,520.00 L 305.12,519.77 L 305.18,519.39 L 305.21,519.09 L 305.27,518.43 L 305.30,518.00 L 305.36,517.07 L 305.38,516.51 L 305.48,514.04 L 305.53,512.47 L 305.61,509.12 L 305.65,507.17 L 305.71,503.09 L 305.74,500.82 L 305.79,496.15 L 305.81,493.63 L 305.84,488.51 L 305.85,485.82 L 305.87,480.38 L 305.87,477.58 L 305.86,466.28 L 305.83,460.69 L 305.80,455.14 L 305.78,452.45 L 305.72,447.14 L 305.69,444.62 L 305.62,439.70 L 305.58,437.42 L 305.50,433.02 L 305.45,431.06 L 305.37,428.25 M 179.83,548.51 L 178.05,548.88 L 174.68,550.23 L 173.04,551.01 L 170.08,553.17 L 166.29,557.30 L 165.82,557.99 L 165.01,559.63 L 164.63,560.50 L 164.02,562.42 L 163.46,564.39 L 162.97,568.77 L 162.83,570.96 L 163.21,575.21 L 163.36,576.22 L 163.84,578.10 L 164.81,580.60 L 165.62,582.16 L 167.57,584.91 L 168.59,586.21 L 170.91,588.41 L 172.11,589.44 L 174.73,591.07 L 176.06,591.81 L 178.89,592.84 L 180.33,593.28 L 183.29,593.70 L 184.78,593.83 L 187.80,593.60 L 189.30,593.41 L 192.30,592.51 L 193.78,591.98 L 196.67,590.40 L 197.33,589.99 L 198.76,588.92 L 199.47,588.36 L 200.90,587.09 L 201.60,586.44 L 202.86,585.13 L 204.38,583.27 L 205.05,582.32 L 205.97,580.77 L 206.37,580.01 L 206.86,578.41 L 207.06,577.54 L 207.25,575.30 L 207.29,574.67 L 207.33,573.19 L 207.36,570.57 L 207.37,569.58 L 207.36,567.92 L 207.36,567.13 L 207.31,565.80 L 207.25,564.54 L 206.95,562.70 L 206.75,561.84 L 206.05,560.33 L 204.42,557.77 L 203.29,556.17 L 200.55,553.54 L 199.12,552.33 L 195.89,550.50 L 194.24,549.68 L 190.71,548.64 L 188.92,548.22 L 185.26,547.98 L 183.43,547.95 M 328.43,548.15 L 326.48,548.32 L 322.80,549.21 L 321.92,549.47 L 320.29,550.12 L 318.15,551.28 L 316.95,552.08 L 314.84,553.91 L 313.85,554.87 L 312.16,556.98 L 311.37,558.06 L 310.12,560.40 L 309.55,561.60 L 308.75,564.11 L 308.40,565.39 L 308.05,568.03 L 307.94,569.36 L 308.06,572.08 L 308.18,573.45 L 308.79,576.19 L 310.27,580.28 L 310.95,581.77 L 312.62,584.40 L 313.50,585.66 L 315.53,587.82 L 316.58,588.84 L 318.90,590.50 L 320.10,591.27 L 322.65,592.41 L 323.95,592.92 L 326.68,593.52 L 328.06,593.75 L 330.90,593.78 L 332.33,593.72 L 335.22,593.16 L 336.66,592.81 L 339.54,591.63 L 340.71,591.09 L 342.82,589.82 L 343.83,589.15 L 345.65,587.65 L 346.52,586.88 L 348.04,585.19 L 348.76,584.33 L 349.99,582.49 L 350.57,581.56 L 351.50,579.59 L 351.93,578.60 L 352.57,576.55 L 352.85,575.52 L 353.20,573.42 L 353.33,572.37 L 353.38,570.25 L 353.37,569.19 L 353.13,567.08 L 352.98,566.03 L 352.45,563.97 L 352.14,562.95 L 351.32,560.97 L 350.87,560.00 L 349.75,558.13 L 349.16,557.22 L 347.75,555.51 L 347.01,554.67 L 345.31,553.14 L 344.43,552.40 L 342.44,551.08 L 339.13,549.39 L 338.41,549.08 L 336.80,548.63 L 335.96,548.43 L 334.16,548.18 L 332.33,547.98 M 503.77,557.19 L 503.50,580.50 L 494.83,580.50 L 485.17,564.30 L 483.84,562.07 L 481.32,558.00 L 480.71,557.03 L 479.56,555.24 L 479.00,554.38 L 477.98,552.84 L 477.49,552.10 L 476.62,550.85 L 476.20,550.26 L 475.51,549.34 L 475.19,548.93 L 474.72,548.39 L 474.27,548.05 L 474.16,548.04 L 473.96,548.24 L 473.86,548.37 L 473.69,548.87 L 473.60,549.16 L 473.45,549.98 L 473.38,550.44 L 473.26,551.62 L 473.20,552.26 L 473.10,553.82 L 473.05,554.66 L 472.97,556.63 L 472.93,557.68 L 472.86,560.10 L 472.77,564.25 L 472.50,580.50 L 465.00,581.12 L 465.00,534.00 L 470.58,534.00 L 471.79,534.02 L 472.37,534.04 L 473.35,534.21 L 473.83,534.33 L 474.73,534.80 L 475.19,535.08 L 476.14,536.00 L 476.63,536.52 L 477.77,538.03 L 478.38,538.87 L 479.84,541.11 L 480.24,541.72 L 481.11,543.11 L 481.56,543.84 L 482.55,545.46 L 483.07,546.30 L 484.21,548.18 L 486.11,551.30 L 494.50,565.09 L 495.50,534.50 L 499.77,534.19 L 504.04,533.88 M 539.86,534.17 L 541.58,534.28 L 544.66,534.69 L 546.15,534.92 L 548.80,535.59 L 550.08,535.95 L 552.35,536.89 L 553.44,537.40 L 555.35,538.64 L 556.27,539.30 L 557.88,540.85 L 558.65,541.67 L 560.00,543.55 L 561.76,546.78 L 562.28,547.91 L 563.00,549.79 L 563.32,550.69 L 563.69,552.37 L 563.84,553.22 L 563.91,555.07 L 563.76,558.41 L 563.61,560.33 L 562.92,563.79 L 562.52,565.45 L 561.33,568.41 L 560.67,569.83 L 558.96,572.30 L 558.04,573.47 L 555.81,575.46 L 554.63,576.39 L 551.86,577.90 L 550.41,578.59 L 547.11,579.63 L 545.39,580.09 L 541.54,580.66 L 535.13,581.00 L 533.92,581.00 L 531.66,580.95 L 530.58,580.91 L 528.72,580.80 L 527.86,580.74 L 526.62,580.59 L 526.09,580.51 L 525.67,580.33 L 525.62,580.29 L 525.53,579.73 L 525.49,579.38 L 525.41,578.27 L 525.37,577.65 L 525.29,576.05 L 525.26,575.19 L 525.20,573.16 L 525.17,572.09 L 525.11,569.69 L 525.09,568.45 L 525.05,565.75 L 525.00,556.83 L 525.00,534.00 L 536.31,534.00 M 443.50,580.50 L 444.00,579.67 L 444.00,581.00 L 442.01,581.00 M 629.80,534.09 L 630.46,534.15 L 631.60,534.34 L 632.13,534.45 L 632.93,534.72 L 633.62,535.20 L 633.75,535.40 L 634.14,536.24 L 634.35,536.72 L 634.90,538.06 L 635.19,538.78 L 635.86,540.53 L 636.21,541.45 L 636.99,543.54 L 637.78,545.71 L 639.58,550.74 L 640.49,553.32 L 642.35,558.73 L 643.27,561.43 L 645.00,566.60 L 645.41,567.85 L 646.17,570.21 L 646.54,571.35 L 647.20,573.44 L 647.52,574.44 L 648.04,576.18 L 648.29,576.99 L 648.66,578.31 L 648.82,578.91 L 649.00,579.73 L 649.04,580.32 L 648.94,580.43 L 648.44,580.61 L 648.15,580.69 L 647.36,580.80 L 644.43,580.82 L 643.52,580.74 L 642.26,580.53 L 641.70,580.39 L 640.93,579.85 L 640.58,579.51 L 640.02,578.38 L 639.11,575.72 L 637.63,570.93 L 628.09,571.22 L 618.55,571.50 L 616.90,576.00 L 616.51,577.05 L 615.89,578.49 L 615.58,579.11 L 614.89,579.88 L 614.51,580.20 L 613.48,580.53 L 611.21,580.80 L 610.11,580.89 L 608.24,580.78 L 607.83,580.74 L 607.23,580.59 L 606.98,580.51 L 606.75,580.30 L 606.72,580.25 L 606.82,579.68 L 606.90,579.32 L 607.21,578.20 L 607.39,577.57 L 607.89,575.96 L 608.15,575.09 L 608.81,573.05 L 609.16,571.99 L 609.95,569.58 L 610.37,568.34 L 611.29,565.65 L 614.39,556.75 L 622.47,534.00 L 628.42,534.00 M 590.50,534.50 L 590.50,580.50 L 586.96,580.80 L 585.99,580.88 L 584.26,580.80 L 583.87,580.76 L 583.27,580.63 L 583.01,580.56 L 582.71,580.38 L 582.67,580.33 L 582.57,579.77 L 582.52,579.42 L 582.44,578.30 L 582.39,577.67 L 582.32,576.06 L 582.28,575.20 L 582.21,573.15 L 582.18,572.08 L 582.12,569.67 L 582.10,568.43 L 582.06,565.72 L 582.00,556.78 L 582.00,533.89 M 534.00,571.89 L 538.75,572.26 L 540.06,572.37 L 542.45,572.58 L 542.99,572.63 L 543.84,572.72 L 544.67,572.82 L 544.83,572.84 L 545.38,572.68 L 545.69,572.56 L 546.45,572.15 L 547.24,571.70 L 549.06,570.30 L 550.03,569.48 L 551.63,567.60 L 552.37,566.63 L 553.49,564.46 L 553.99,563.34 L 554.62,560.91 L 555.00,557.00 L 555.00,555.79 L 554.75,553.57 L 554.58,552.49 L 554.01,550.56 L 553.68,549.63 L 552.78,547.99 L 552.29,547.20 L 551.08,545.86 L 550.44,545.23 L 548.92,544.19 L 548.12,543.71 L 546.30,542.98 L 545.36,542.66 L 543.24,542.25 L 539.75,542.00 L 534.00,542.00 M 627.44,545.91 L 626.95,546.42 L 626.70,546.76 L 626.11,547.98 L 625.00,550.72 L 624.41,552.30 L 623.33,555.58 L 623.08,556.35 L 622.69,557.69 L 622.31,559.22 L 621.75,562.00 L 628.62,561.92 L 629.57,561.91 L 631.20,561.85 L 631.95,561.82 L 633.11,561.72 L 633.62,561.66 L 634.19,561.54 L 634.39,561.47 L 634.24,561.34 L 633.90,561.20 L 633.51,560.74 L 633.50,560.01 L 633.57,559.88 L 633.52,559.19 L 633.47,558.79 L 633.19,557.66 L 632.87,556.46 L 631.78,553.38 L 631.20,551.83 L 629.95,548.97 L 629.64,548.33 L 629.08,547.29 L 628.36,546.25 L 628.12,546.00 L 627.67,545.90 M 396.97,536.86 L 396.96,539.91 L 396.96,541.39 L 396.94,544.04 L 396.93,545.33 L 396.89,547.62 L 396.87,548.73 L 396.80,550.71 L 396.77,551.66 L 396.68,553.34 L 396.58,554.95 L 396.53,555.38 L 396.55,555.00 L 396.61,553.88 L 396.70,551.51 L 396.75,550.15 L 396.82,547.31 L 396.85,545.75 L 396.91,542.55 L 396.93,540.85 L 396.97,536.47 M 396.40,502.48 L 396.49,503.38 L 396.63,505.59 L 396.69,506.77 L 396.79,509.64 L 396.83,511.18 L 396.89,514.87 L 396.91,516.84 L 396.93,519.43 L 396.89,516.13 L 396.85,514.54 L 396.79,511.45 L 396.75,510.05 L 396.66,507.35 L 396.61,506.18 L 396.50,503.99 L 396.44,503.11 L 396.34,501.98 M 712.42,432.61 L 712.90,432.64 L 713.57,432.76 L 714.00,433.00 L 714.00,433.08 L 714.39,433.34 L 714.64,433.48 L 715.46,433.81 L 715.91,433.98 L 717.04,434.35 L 718.97,434.89 L 720.08,435.18 L 722.31,436.05 L 723.42,436.54 L 725.59,437.76 L 726.67,438.40 L 728.72,439.90 L 729.72,440.68 L 731.57,442.38 L 732.47,443.25 L 734.05,445.08 L 734.80,446.01 L 736.05,447.91 L 736.62,448.87 L 737.11,450.00 L 737.00,450.00 L 736.29,450.29 L 736.00,450.72 L 736.00,451.00 L 736.11,451.52 L 736.29,451.71 L 736.73,452.00 L 737.00,452.00 L 737.69,451.71 L 738.15,453.54 L 738.50,456.50 L 731.37,456.79 L 724.25,457.08 L 722.19,453.60 L 721.43,452.31 L 719.36,450.19 L 718.25,449.21 L 715.61,447.76 L 714.23,447.13 L 711.17,446.43 L 706.29,446.31 L 704.51,446.49 L 701.43,447.29 L 699.96,447.76 L 697.46,449.15 L 696.27,449.93 L 694.29,451.97 L 691.82,455.79 L 691.42,456.61 L 690.75,458.61 L 690.45,459.66 L 689.98,462.02 L 689.78,463.24 L 689.51,465.83 L 689.40,467.15 L 689.33,469.84 L 689.32,472.54 L 689.88,477.72 L 690.08,478.95 L 690.44,480.49 L 689.74,478.49 L 689.40,477.83 L 689.24,477.59 L 688.94,477.19 L 688.81,477.09 L 688.57,476.97 L 688.49,477.02 L 688.34,477.21 L 688.31,477.42 L 688.29,477.93 L 688.33,478.32 L 688.45,479.18 L 688.58,479.75 L 690.04,483.72 L 691.53,486.45 L 692.45,487.74 L 694.38,490.24 L 695.42,491.27 L 697.52,493.14 L 698.54,493.72 L 702.80,495.34 L 706.05,495.94 L 707.73,495.99 L 711.10,495.91 L 712.68,495.63 L 715.74,494.88 L 717.00,494.25 L 718.55,493.27 L 719.65,492.41 L 720.18,491.91 L 722.25,489.78 L 722.92,488.75 L 724.40,486.63 L 725.27,485.76 L 725.80,485.51 L 726.97,485.14 L 727.83,485.08 L 728.74,485.02 L 729.29,485.01 L 730.46,485.00 L 731.17,485.00 L 733.34,485.03 L 734.52,485.11 L 734.97,485.18 L 735.80,485.35 L 736.10,485.49 L 736.61,485.81 L 736.75,486.04 L 736.97,486.55 L 736.97,486.88 L 736.92,487.62 L 736.81,488.08 L 736.51,489.08 L 736.28,489.69 L 735.78,491.00 L 735.45,491.78 L 734.03,494.60 L 732.90,496.36 L 732.24,497.18 L 730.86,498.78 L 730.07,499.52 L 728.44,500.96 L 727.53,501.62 L 725.65,502.89 L 724.62,503.47 L 722.50,504.58 L 721.35,505.07 L 718.98,506.01 L 717.71,506.42 L 715.11,507.20 L 713.72,507.52 L 708.46,508.74 L 708.20,508.76 L 703.76,508.62 L 702.69,508.55 L 700.68,508.28 L 699.70,508.13 L 697.95,507.70 L 695.62,507.04 L 691.41,505.07 L 689.38,503.98 L 685.79,501.17 L 684.07,499.65 L 681.11,496.00 L 677.42,489.61 L 676.67,487.99 L 675.37,484.16 L 675.08,483.23 L 674.63,481.50 L 674.23,479.33 L 674.09,478.13 L 673.62,476.08 L 673.50,475.64 L 673.24,474.97 L 673.05,474.69 L 673.19,474.82 L 673.37,474.88 L 673.68,474.84 L 673.78,474.57 L 673.93,473.85 L 673.96,473.17 L 674.00,471.60 L 674.00,470.44 L 673.93,468.60 L 673.82,467.63 L 673.73,467.28 L 673.54,466.70 L 673.41,466.56 L 673.15,466.41 L 673.00,466.50 L 672.62,466.99 L 672.41,467.53 L 672.33,467.87 L 672.06,469.41 L 672.02,470.28 L 672.02,470.56 L 672.02,470.50 L 672.02,469.61 L 672.23,468.01 L 672.30,467.65 L 672.49,467.09 L 672.86,466.59 L 672.98,466.51 L 673.24,466.02 L 673.38,465.73 L 673.65,464.87 L 674.35,461.50 L 674.54,460.07 L 675.27,457.24 L 675.69,455.83 L 676.84,453.08 L 677.46,451.72 L 678.96,449.11 L 679.76,447.83 L 681.57,445.43 L 682.51,444.26 L 684.58,442.13 L 685.64,441.11 L 687.92,439.31 L 689.08,438.46 L 691.51,437.07 L 695.28,435.49 L 696.72,435.04 L 699.41,434.16 L 700.02,433.96 L 701.01,433.62 L 702.00,433.27 L 702.26,433.17 L 703.12,433.00 L 703.59,432.91 L 704.76,432.78 L 705.99,432.66 L 708.79,432.55 L 710.16,432.52 M 525.51,432.58 L 525.97,432.62 L 526.60,432.75 L 527.00,433.01 L 527.00,433.12 L 527.30,433.38 L 527.49,433.51 L 528.12,433.77 L 530.81,434.47 L 532.08,434.68 L 534.65,435.52 L 535.94,436.00 L 538.50,437.33 L 539.77,438.04 L 542.24,439.78 L 543.46,440.69 L 545.77,442.77 L 546.89,443.84 L 548.96,446.19 L 549.95,447.38 L 551.06,449.00 L 550.98,449.00 L 550.81,449.30 L 550.85,449.76 L 550.94,450.10 L 551.48,451.72 L 551.97,452.75 L 553.44,456.43 L 553.87,457.74 L 554.05,458.35 L 554.36,459.52 L 554.46,460.00 L 555.12,463.06 L 555.35,464.03 L 555.45,464.45 L 555.65,465.22 L 555.73,465.50 L 556.10,466.52 L 556.28,466.64 L 556.45,466.69 L 556.53,466.62 L 556.69,466.40 L 556.76,466.19 L 556.78,465.84 L 556.80,465.96 L 557.01,468.73 L 556.73,474.38 L 556.47,477.18 L 555.26,482.61 L 554.90,483.94 L 554.01,486.48 L 552.44,490.09 L 552.06,490.85 L 551.03,492.46 L 550.47,493.27 L 549.15,494.92 L 547.78,496.58 L 544.47,499.77 L 542.77,501.31 L 539.23,503.87 L 538.36,504.45 L 536.67,505.40 L 534.29,506.46 L 533.48,506.74 L 531.66,507.22 L 530.72,507.45 L 528.71,507.83 L 526.66,508.17 L 522.31,508.52 L 520.15,508.64 L 516.06,508.50 L 515.09,508.43 L 513.30,508.20 L 512.43,508.06 L 510.93,507.70 L 509.01,507.15 L 505.47,505.71 L 503.75,504.93 L 500.62,503.04 L 499.10,502.03 L 496.39,499.70 L 495.09,498.48 L 492.80,495.72 L 491.72,494.29 L 489.88,491.13 L 489.02,489.50 L 487.64,485.94 L 487.01,484.12 L 486.10,480.19 L 485.27,473.89 L 485.11,471.60 L 485.26,467.18 L 485.41,465.00 L 486.16,460.83 L 486.61,458.79 L 487.92,454.94 L 488.64,453.06 L 490.47,449.59 L 491.46,447.91 L 493.78,444.89 L 495.00,443.44 L 497.78,440.92 L 499.22,439.73 L 502.41,437.78 L 507.63,435.56 L 509.25,435.05 L 512.22,434.12 L 512.88,433.91 L 513.95,433.57 L 515.00,433.24 L 515.34,433.13 L 516.31,432.94 L 516.82,432.86 L 518.04,432.72 L 519.29,432.59 L 522.03,432.49 L 523.36,432.46 M 605.99,432.56 L 606.98,432.92 L 607.05,433.03 L 607.46,433.28 L 607.71,433.41 L 608.39,433.67 L 611.06,434.37 L 612.06,434.55 L 614.15,435.24 L 615.20,435.64 L 617.33,436.71 L 618.40,437.28 L 620.49,438.65 L 621.52,439.36 L 623.50,440.96 L 624.46,441.78 L 626.22,443.53 L 627.07,444.42 L 628.55,446.26 L 629.24,447.19 L 630.35,449.05 L 631.49,451.77 L 631.63,452.26 L 631.68,453.02 L 631.66,453.38 L 631.27,453.98 L 631.01,454.27 L 630.05,454.86 L 627.82,455.92 L 626.79,456.37 L 625.07,457.09 L 624.27,457.43 L 622.96,457.92 L 622.35,458.14 L 621.38,458.38 L 620.92,458.48 L 620.18,458.47 L 619.84,458.43 L 619.26,458.17 L 618.98,458.00 L 618.48,457.46 L 618.23,457.16 L 617.72,456.34 L 616.85,454.79 L 616.01,453.26 L 613.85,450.80 L 612.69,449.67 L 609.94,448.03 L 608.49,447.31 L 605.21,446.52 L 599.76,446.33 L 598.11,446.47 L 595.15,447.11 L 593.73,447.49 L 591.20,448.62 L 589.99,449.25 L 587.89,450.86 L 586.90,451.73 L 585.24,453.83 L 584.46,454.95 L 583.24,457.53 L 582.68,458.89 L 581.89,461.96 L 581.55,463.55 L 581.20,467.10 L 581.17,472.96 L 581.27,475.07 L 581.94,478.93 L 582.35,480.81 L 583.58,484.18 L 584.27,485.80 L 586.01,488.63 L 586.94,489.97 L 589.13,492.20 L 590.28,493.23 L 592.86,494.81 L 594.20,495.51 L 597.11,496.37 L 598.60,496.71 L 601.79,496.81 L 606.80,496.05 L 608.00,495.73 L 610.50,494.47 L 611.75,493.75 L 614.10,491.92 L 615.22,490.96 L 617.08,488.85 L 618.95,485.68 L 619.21,485.00 L 619.60,483.87 L 619.77,483.34 L 619.95,482.48 L 620.00,482.09 L 619.92,481.48 L 619.85,481.20 L 619.45,480.79 L 619.21,480.60 L 618.45,480.35 L 618.02,480.25 L 616.84,480.12 L 616.20,480.07 L 614.55,480.02 L 611.50,480.00 L 603.00,480.00 L 603.00,468.00 L 633.26,468.00 L 632.81,478.95 L 632.75,480.19 L 632.65,482.30 L 632.60,483.30 L 632.48,484.99 L 632.42,485.79 L 632.26,487.14 L 632.17,487.79 L 631.96,488.90 L 631.73,489.97 L 631.02,491.75 L 629.43,494.61 L 628.62,495.90 L 626.34,498.49 L 625.12,499.77 L 622.26,502.12 L 620.79,503.25 L 617.69,505.10 L 613.18,507.02 L 611.56,507.49 L 607.66,508.11 L 605.65,508.37 L 601.39,508.57 L 599.28,508.61 L 595.25,508.36 L 594.28,508.27 L 592.49,508.00 L 591.62,507.86 L 590.08,507.48 L 587.83,506.84 L 583.77,505.06 L 581.82,504.08 L 578.37,501.62 L 576.72,500.31 L 573.90,497.18 L 570.38,491.74 L 569.92,490.85 L 568.92,489.27 L 568.69,488.92 L 568.26,488.37 L 567.88,488.00 L 568.11,488.00 L 568.74,487.91 L 568.94,487.69 L 568.93,487.45 L 568.84,486.87 L 568.68,486.38 L 568.29,485.25 L 567.97,484.43 L 567.09,482.67 L 566.61,482.21 L 566.45,482.31 L 566.32,482.55 L 566.18,481.49 L 566.13,481.19 L 566.06,480.77 L 565.99,480.58 L 566.27,480.77 L 566.45,480.69 L 566.75,480.36 L 566.79,480.01 L 566.80,479.23 L 566.68,478.75 L 566.38,477.77 L 566.10,477.29 L 565.78,476.77 L 565.78,476.75 L 565.73,474.54 L 565.65,470.75 L 565.63,469.41 L 565.65,466.96 L 565.67,465.80 L 565.74,464.38 L 565.80,464.30 L 566.00,464.00 L 566.70,462.71 L 566.94,462.03 L 566.94,461.77 L 566.86,461.33 L 566.70,461.20 L 566.31,461.00 L 566.25,461.00 L 566.25,461.00 L 566.46,461.00 L 566.78,460.49 L 567.01,459.25 L 567.01,458.87 L 567.22,457.86 L 567.36,457.32 L 567.80,456.05 L 568.30,454.74 L 569.81,451.67 L 570.62,450.11 L 572.51,447.07 L 575.39,443.25 L 575.89,442.70 L 577.24,441.50 L 577.96,440.90 L 579.61,439.69 L 580.46,439.10 L 582.21,438.02 L 584.74,436.70 L 585.47,436.37 L 587.33,435.73 L 588.31,435.41 L 590.54,434.80 L 592.82,434.21 L 597.69,433.28 L 598.87,433.08 L 601.06,432.79 L 602.12,432.66 L 603.92,432.53 L 604.76,432.49 M 850.49,434.61 L 850.79,434.77 L 851.54,435.03 L 852.04,435.17 L 854.32,435.73 L 855.65,435.95 L 857.34,436.23 L 858.05,436.34 L 859.37,436.55 L 859.91,436.62 L 860.90,436.75 L 861.27,436.79 L 861.94,436.84 L 862.16,436.84 L 862.54,436.82 L 862.62,436.78 L 862.73,436.69 L 862.69,436.61 L 862.54,436.47 L 863.42,436.93 L 865.62,438.19 L 866.60,438.76 L 868.33,439.93 L 869.16,440.52 L 870.60,441.75 L 871.29,442.38 L 872.45,443.70 L 873.00,444.37 L 873.91,445.81 L 874.33,446.55 L 874.99,448.14 L 875.29,448.96 L 875.73,450.74 L 875.93,451.65 L 876.16,453.64 L 876.29,456.90 L 876.29,458.94 L 875.87,462.57 L 875.73,463.41 L 875.37,464.85 L 874.71,466.59 L 874.52,466.96 L 873.94,467.83 L 873.62,468.28 L 872.82,469.27 L 871.99,470.27 L 869.91,472.40 L 868.83,473.45 L 866.59,475.37 L 863.53,477.54 L 863.12,477.78 L 862.79,478.49 L 862.77,478.72 L 862.89,479.34 L 862.98,479.68 L 863.37,480.60 L 863.60,481.10 L 864.29,482.40 L 864.68,483.10 L 865.71,484.87 L 866.27,485.81 L 867.69,488.12 L 870.28,492.30 L 871.26,493.86 L 872.89,496.49 L 873.65,497.72 L 874.87,499.75 L 875.44,500.70 L 876.29,502.22 L 876.68,502.92 L 877.21,504.01 L 877.44,504.51 L 877.68,505.26 L 877.72,505.40 L 877.67,505.42 L 876.51,505.66 L 875.39,505.81 L 874.71,505.87 L 871.73,506.11 L 870.17,506.15 L 864.50,506.30 L 869.00,507.00 L 871.48,507.38 L 872.49,507.54 L 873.44,507.68 L 873.79,507.74 L 874.39,507.83 L 874.32,507.84 L 874.20,507.81 L 873.57,507.73 L 873.19,507.68 L 872.14,507.55 L 871.00,507.41 L 868.04,507.09 L 862.58,506.50 L 846.74,480.00 L 837.00,480.00 L 837.00,507.09 L 829.75,506.79 L 822.50,506.50 L 822.24,470.75 L 821.97,435.00 L 836.24,434.77 L 837.67,434.74 L 840.27,434.70 L 841.53,434.68 L 843.81,434.65 L 844.92,434.64 L 846.90,434.62 L 847.86,434.61 L 849.58,434.61 M 747.35,507.19 L 748.25,507.27 L 750.26,507.44 L 751.13,507.51 L 752.78,507.64 L 753.48,507.69 L 754.80,507.76 L 755.35,507.78 L 756.23,507.80 L 756.13,507.81 L 755.59,507.81 L 754.22,507.75 L 753.47,507.71 L 751.61,507.56 L 750.61,507.48 L 748.17,507.26 L 747.27,507.18 L 746.52,507.08 M 876.99,507.01 L 876.48,507.28 L 875.44,507.66 L 875.01,507.73 L 875.88,507.49 L 877.03,506.85 L 877.31,506.62 M 936.00,507.66 L 913.50,507.58 L 913.50,507.58 L 922.24,507.55 L 924.86,507.52 L 926.06,507.49 L 928.37,507.44 L 929.39,507.41 L 931.33,507.35 L 932.14,507.31 L 933.65,507.23 L 934.22,507.19 L 935.24,507.10 L 935.54,507.05 L 936.00,506.95 M 800.14,469.50 L 800.95,471.84 L 802.53,476.37 L 803.32,478.60 L 804.82,482.85 L 805.55,484.93 L 806.93,488.79 L 807.59,490.67 L 808.81,494.06 L 809.40,495.68 L 810.42,498.49 L 810.90,499.81 L 811.70,501.95 L 812.06,502.92 L 812.59,504.28 L 813.05,505.35 L 813.35,505.86 L 813.47,506.14 L 813.27,506.00 L 813.00,506.00 L 812.29,506.29 L 812.00,506.72 L 812.00,507.00 L 812.08,507.40 L 811.27,507.36 L 810.52,507.33 L 808.68,507.23 L 805.58,507.04 L 797.66,506.50 L 795.25,499.25 L 792.83,492.00 L 764.23,492.00 L 762.57,497.25 L 762.12,498.69 L 761.08,501.77 L 760.84,502.49 L 760.38,503.77 L 759.83,505.25 L 759.55,505.98 L 758.99,506.93 L 758.91,507.02 L 758.41,506.70 L 757.48,506.45 L 756.80,506.33 L 755.31,506.12 L 754.41,506.03 L 752.53,505.87 L 751.50,505.83 L 748.79,505.76 L 747.25,505.78 L 746.63,505.82 L 745.49,505.90 L 745.08,505.96 L 744.37,506.09 L 744.36,506.10 L 744.34,506.06 L 744.52,505.19 L 744.56,505.07 L 744.82,504.37 L 744.97,503.95 L 745.42,502.68 L 745.67,501.99 L 746.29,500.23 L 746.62,499.29 L 747.38,497.11 L 747.78,495.97 L 748.67,493.42 L 749.13,492.11 L 750.12,489.28 L 751.13,486.39 L 753.34,480.02 L 754.47,476.79 L 756.77,470.15 L 757.92,466.84 L 760.12,460.47 L 760.66,458.92 L 761.68,455.97 L 762.18,454.52 L 763.11,451.82 L 763.56,450.51 L 764.37,448.13 L 765.44,445.00 L 768.68,435.50 L 788.30,435.50 M 660.50,506.50 L 653.25,506.79 L 646.00,507.09 L 646.00,435.00 L 661.03,435.00 M 449.50,435.50 L 450.50,494.50 L 465.30,494.78 L 480.10,495.05 L 479.80,500.78 L 479.50,506.50 L 457.25,506.77 L 435.00,507.04 L 435.00,434.91 M 722.79,506.02 L 721.99,506.37 L 720.16,506.97 L 720.00,507.01 L 720.87,506.69 L 723.41,505.62 L 724.29,505.14 M 727.46,503.30 L 726.50,503.85 L 726.96,503.58 L 728.04,502.78 L 729.83,501.36 M 730.38,500.92 L 730.19,501.07 L 730.72,500.55 M 734.13,496.63 L 734.07,496.69 L 734.22,496.48 M 516.99,446.34 L 516.00,446.51 L 514.10,447.12 L 513.16,447.46 L 511.38,448.40 L 510.50,448.90 L 508.87,450.14 L 508.08,450.79 L 506.64,452.30 L 505.94,453.08 L 504.71,454.83 L 504.13,455.74 L 503.16,457.71 L 502.02,460.88 L 501.83,461.55 L 501.54,463.11 L 501.41,463.93 L 501.23,465.74 L 501.07,467.58 L 501.06,471.60 L 501.10,473.60 L 501.48,477.37 L 501.60,478.26 L 501.91,479.87 L 502.48,481.94 L 502.99,483.38 L 504.10,485.88 L 504.68,487.06 L 505.98,489.06 L 506.66,490.00 L 508.21,491.55 L 509.02,492.26 L 510.87,493.38 L 511.84,493.88 L 514.07,494.60 L 515.23,494.91 L 517.89,495.27 L 519.28,495.40 L 522.43,495.42 L 524.07,495.39 L 527.77,495.11 L 527.95,495.10 L 528.62,494.74 L 529.00,494.52 L 529.99,493.82 L 533.53,490.86 L 534.97,489.54 L 537.18,486.60 L 538.18,485.07 L 539.56,481.60 L 540.15,479.79 L 540.74,475.66 L 540.84,474.58 L 540.90,472.27 L 540.79,468.58 L 540.67,466.78 L 540.14,463.49 L 539.83,461.90 L 538.91,459.03 L 538.40,457.64 L 537.10,455.19 L 536.41,454.02 L 534.74,452.01 L 533.86,451.06 L 531.83,449.49 L 530.78,448.76 L 528.40,447.66 L 527.17,447.16 L 524.45,446.52 L 520.00,446.09 L 518.98,446.08 M 701.47,493.71 L 705.93,494.77 L 706.96,494.87 L 708.84,494.92 L 709.76,494.92 L 711.44,494.75 L 712.24,494.64 L 711.28,494.82 L 710.48,494.90 L 708.84,495.00 L 707.93,495.00 L 704.94,494.75 L 703.03,494.34 L 702.12,494.03 L 700.33,493.32 L 699.49,492.86 L 698.96,492.54 M 720.19,489.96 L 719.01,491.17 L 718.42,491.68 L 717.24,492.61 L 716.63,492.99 L 714.15,494.24 L 712.73,494.55 L 712.27,494.64 L 713.78,494.24 L 714.52,494.00 L 715.93,493.33 L 716.62,492.96 L 717.96,492.01 L 718.62,491.49 L 719.93,490.22 L 720.25,489.89 M 736.87,491.88 L 736.45,492.65 L 737.00,491.51 M 697.52,491.52 L 698.51,492.26 L 697.86,491.86 L 697.11,491.27 L 695.66,490.02 L 695.30,489.63 M 720.79,489.31 L 720.73,489.37 L 721.01,489.03 M 694.19,488.28 L 694.94,489.23 L 693.76,487.80 L 693.22,486.97 L 692.90,486.43 M 567.29,487.23 L 567.81,487.93 L 567.75,487.88 L 567.62,487.79 L 567.35,487.37 L 567.22,487.12 M 330.16,445.72 L 328.60,445.74 L 325.73,445.80 L 324.35,445.84 L 322.03,445.93 L 320.97,445.98 L 319.46,446.09 L 319.15,446.12 L 318.72,446.18 L 318.40,446.26 L 318.36,446.30 L 318.29,446.77 L 318.25,447.07 L 318.19,447.99 L 318.16,448.50 L 318.11,449.81 L 318.09,450.51 L 318.05,452.13 L 318.01,453.83 L 317.97,457.90 L 317.96,460.00 L 317.96,464.49 L 317.97,466.73 L 318.01,471.09 L 318.04,473.21 L 318.12,476.92 L 318.15,477.78 L 318.20,479.29 L 318.23,480.00 L 318.29,481.16 L 318.32,481.69 L 318.40,482.44 L 318.52,483.03 L 318.56,483.09 L 319.15,483.22 L 319.53,483.28 L 320.74,483.39 L 321.41,483.44 L 323.13,483.54 L 324.05,483.59 L 326.21,483.68 L 327.33,483.72 L 329.84,483.79 L 331.12,483.82 L 333.88,483.88 L 336.69,483.94 L 342.70,484.00 L 345.71,484.02 L 351.62,484.01 L 353.05,484.01 L 355.78,483.98 L 357.11,483.97 L 359.57,483.92 L 360.76,483.90 L 362.87,483.83 L 363.87,483.80 L 365.53,483.72 L 366.29,483.67 L 367.42,483.57 L 367.91,483.52 L 368.42,483.39 L 368.85,483.23 L 369.54,482.72 L 370.00,481.95 L 370.00,481.86 L 369.79,481.38 L 369.65,481.09 L 369.19,480.26 L 368.94,479.81 L 368.26,478.68 L 367.90,478.08 L 367.04,476.70 L 366.15,475.28 L 363.96,471.89 L 362.83,470.15 L 360.36,466.44 L 359.12,464.58 L 356.64,460.95 L 355.43,459.18 L 353.21,456.03 L 352.69,455.29 L 351.74,453.98 L 351.28,453.36 L 350.49,452.30 L 350.11,451.82 L 349.52,451.08 L 348.87,450.37 L 347.69,449.32 L 345.61,447.85 L 344.56,447.20 L 342.16,446.42 L 341.51,446.25 L 340.01,446.03 L 339.23,445.92 L 337.39,445.80 L 336.42,445.75 L 334.15,445.71 M 691.11,482.61 L 691.03,482.41 L 691.00,482.30 M 778.41,451.37 L 778.15,451.69 L 778.01,451.90 L 777.67,452.55 L 777.49,452.91 L 777.07,453.84 L 776.85,454.34 L 776.37,455.50 L 775.88,456.72 L 774.80,459.64 L 774.25,461.16 L 773.14,464.40 L 772.59,466.03 L 771.57,469.23 L 771.09,470.79 L 770.30,473.56 L 769.94,474.86 L 769.50,476.84 L 769.42,477.27 L 769.34,477.91 L 769.36,478.50 L 769.47,478.79 L 770.04,479.23 L 770.39,479.42 L 771.57,479.69 L 772.26,479.80 L 774.25,479.93 L 774.81,479.95 L 776.10,479.98 L 778.35,480.00 L 779.31,480.00 L 780.91,479.99 L 781.67,479.98 L 782.91,479.94 L 783.49,479.92 L 784.42,479.84 L 784.85,479.80 L 785.52,479.67 L 786.13,479.53 L 786.78,479.05 L 787.04,478.77 L 787.31,477.94 L 787.35,477.78 L 787.33,477.22 L 787.31,476.90 L 787.17,476.05 L 787.01,475.14 L 786.40,472.65 L 786.06,471.33 L 785.18,468.30 L 784.71,466.75 L 783.67,463.54 L 783.14,461.94 L 782.07,458.91 L 781.54,457.45 L 780.55,454.97 L 780.32,454.40 L 779.88,453.43 L 779.67,452.97 L 779.30,452.26 L 779.13,451.95 L 778.83,451.55 L 778.50,451.34 M 844.93,447.20 L 837.50,447.50 L 837.20,456.00 L 837.15,457.62 L 837.07,460.27 L 837.05,461.51 L 837.07,463.49 L 837.10,464.40 L 837.29,465.80 L 837.40,466.43 L 837.80,467.35 L 838.03,467.76 L 838.70,468.30 L 839.07,468.53 L 840.07,468.79 L 840.61,468.89 L 841.99,468.97 L 844.55,469.00 L 846.34,469.00 L 850.15,468.58 L 851.04,468.46 L 852.62,468.13 L 853.36,467.96 L 854.45,467.58 L 855.60,467.10 L 857.38,465.89 L 858.19,465.24 L 859.33,463.61 L 859.82,462.74 L 860.35,460.61 L 860.53,456.77 L 860.48,455.79 L 860.22,454.09 L 860.06,453.28 L 859.56,451.90 L 859.27,451.25 L 858.48,450.17 L 858.05,449.67 L 856.94,448.87 L 856.34,448.50 L 854.87,447.96 L 854.09,447.71 L 852.22,447.40 L 851.23,447.27 L 848.92,447.16 M 555.40,457.95 L 555.43,458.03 L 555.36,457.82 M 303.86,412.02 L 304.20,412.55 L 304.60,413.87 L 304.77,414.62 L 304.93,416.73 L 304.96,417.34 L 304.99,418.77 L 304.99,420.14 L 304.90,418.71 L 304.77,417.06 L 304.70,416.37 L 304.56,415.07 L 304.48,414.54 L 304.31,413.55 L 304.21,413.14 L 303.83,411.97 M 301.81,409.72 L 301.09,409.30 L 300.57,409.12 L 300.23,409.05 L 299.47,408.90 L 298.98,408.83 L 297.91,408.70 L 297.23,408.65 L 295.76,408.54 L 294.85,408.49 L 292.90,408.40 L 291.71,408.37 L 289.20,408.29 L 287.70,408.26 L 284.54,408.20 L 282.69,408.18 L 278.80,408.14 L 276.56,408.12 L 271.86,408.08 L 269.18,408.07 L 263.60,408.05 L 260.44,408.04 L 253.88,408.02 L 250.21,408.02 L 246.47,408.01 L 244.49,408.01 L 240.48,408.01 L 238.36,408.01 L 234.06,408.00 L 231.80,408.00 L 227.20,408.00 L 224.78,408.00 L 219.87,408.00 L 217.30,408.00 L 212.08,408.00 L 300.09,408.00 M 443.92,577.59 L 443.80,577.00 L 443.72,577.00 L 443.02,577.59 L 442.20,578.45 L 441.73,579.00 L 441.02,579.84 L 440.82,580.12 L 440.53,580.58 L 440.55,580.71 L 440.70,580.92 L 440.94,580.96 L 441.54,581.00 L 435.00,581.00 L 435.00,534.00 L 444.00,534.00 L 444.00,579.00 M 935.54,506.74 L 934.80,506.64 L 934.22,506.60 L 932.95,506.50 L 932.14,506.46 L 930.41,506.37 L 929.39,506.33 L 927.25,506.26 L 926.06,506.22 L 923.58,506.16 L 922.24,506.14 L 916.59,506.05 L 913.50,506.04 L 904.76,506.06 L 902.14,506.09 L 900.94,506.12 L 898.63,506.17 L 897.61,506.20 L 895.67,506.26 L 894.86,506.30 L 893.35,506.38 L 892.78,506.42 L 891.76,506.51 L 891.46,506.56 L 891.00,506.66 L 891.00,506.72 L 891.16,506.83 L 891.46,506.88 L 892.20,506.98 L 892.78,507.03 L 894.05,507.12 L 894.86,507.17 L 896.59,507.25 L 897.61,507.29 L 899.75,507.37 L 900.94,507.40 L 903.42,507.46 L 904.76,507.49 L 910.40,507.57 L 904.69,507.52 L 903.32,507.51 L 900.78,507.48 L 899.54,507.46 L 897.32,507.43 L 896.26,507.41 L 894.42,507.37 L 893.56,507.35 L 892.17,507.30 L 891.54,507.28 L 890.66,507.24 L 890.30,507.21 L 890.00,507.17 L 889.92,507.14 L 889.77,506.50 L 889.70,506.08 L 889.57,504.67 L 889.51,503.87 L 889.40,501.70 L 889.35,500.53 L 889.26,497.64 L 889.22,496.10 L 889.15,492.50 L 889.11,490.61 L 889.07,486.31 L 889.04,484.08 L 889.02,479.11 L 889.00,470.92 L 889.00,435.00 L 935.00,435.00 L 935.00,447.00 L 904.00,447.00 L 904.00,464.00 L 919.92,464.00 L 923.44,464.02 L 925.12,464.03 L 927.90,464.07 L 928.54,464.08 L 929.62,464.11 L 930.13,464.12 L 930.93,464.15 L 931.28,464.17 L 931.75,464.20 L 932.05,464.25 L 932.27,465.31 L 932.54,467.48 L 932.65,468.56 L 932.70,470.57 L 932.70,471.53 L 932.54,473.16 L 932.05,474.91 L 931.79,475.40 L 931.10,476.06 L 930.89,476.21 L 930.30,476.43 L 929.97,476.54 L 929.10,476.69 L 928.61,476.76 L 927.34,476.86 L 926.65,476.90 L 924.91,476.95 L 923.97,476.97 L 921.65,476.99 L 917.43,477.00 L 903.92,477.00 L 904.50,494.50 L 920.25,494.78 L 936.00,495.05 L 936.00,506.90 M 726.99,483.23 L 726.40,483.38 L 725.96,483.53 L 726.39,483.38 L 726.98,483.23 L 728.66,483.08 L 732.22,483.00 L 728.67,483.08 Z" fill="rgba(0,39,80,1)"/>
<path d="M 443.92,577.59 L 444.00,579.00 L 444.00,579.67 L 443.50,580.50 L 442.01,581.00 L 441.54,581.00 L 440.94,580.96 L 440.70,580.92 L 440.55,580.71 L 440.53,580.58 L 440.82,580.12 L 441.02,579.84 L 441.73,579.00 L 442.20,578.45 L 443.02,577.59 L 443.72,577.00 L 443.80,577.00 M 396.08,500.13 L 396.23,501.00 L 396.31,501.52 L 396.44,503.11 L 396.50,503.99 L 396.61,506.18 L 396.66,507.35 L 396.75,510.05 L 396.79,511.45 L 396.85,514.54 L 396.89,516.13 L 396.93,519.51 L 396.97,522.94 L 396.99,530.21 L 396.99,533.84 L 396.93,540.85 L 396.91,542.55 L 396.85,545.75 L 396.82,547.31 L 396.75,550.15 L 396.70,551.51 L 396.61,553.88 L 396.55,555.00 L 396.44,556.79 L 396.37,557.61 L 396.23,558.72 L 396.00,559.50 L 395.92,559.55 L 395.77,559.15 L 395.70,558.87 L 395.57,557.81 L 395.50,557.19 L 395.40,555.48 L 395.34,554.53 L 395.26,552.17 L 395.22,550.90 L 395.15,547.88 L 395.12,546.30 L 395.07,542.64 L 395.05,540.74 L 395.03,536.45 L 395.02,534.23 L 395.02,529.31 L 395.02,526.78 L 395.03,522.19 L 395.05,519.98 L 395.08,516.04 L 395.11,514.16 L 395.16,510.87 L 395.19,509.31 L 395.27,506.69 L 395.31,505.46 L 395.41,503.50 L 395.46,502.60 L 395.58,501.31 L 395.64,500.75 L 395.78,500.15 L 396.00,500.00 M 688.81,477.09 L 688.94,477.19 L 689.24,477.59 L 689.40,477.83 L 689.74,478.49 L 690.76,481.38 L 691.03,482.41 L 691.79,484.32 L 692.20,485.26 L 693.22,486.97 L 693.76,487.80 L 695.00,489.30 L 695.66,490.02 L 697.11,491.27 L 697.86,491.86 L 699.49,492.86 L 700.33,493.32 L 702.12,494.03 L 703.03,494.34 L 704.94,494.75 L 707.93,495.00 L 708.84,495.00 L 710.48,494.90 L 711.28,494.82 L 712.73,494.55 L 714.15,494.24 L 716.63,492.99 L 717.24,492.61 L 718.42,491.68 L 719.01,491.17 L 720.19,489.96 L 720.79,489.31 L 722.02,487.78 L 723.97,485.12 L 724.28,484.67 L 724.98,484.03 L 725.36,483.74 L 726.40,483.38 L 726.99,483.23 L 728.67,483.08 L 732.22,483.00 L 733.17,483.00 L 734.73,483.02 L 735.46,483.03 L 736.60,483.12 L 737.12,483.18 L 737.87,483.40 L 738.20,483.53 L 738.60,483.93 L 738.77,484.16 L 738.87,484.80 L 738.89,485.15 L 738.72,486.09 L 738.61,486.60 L 738.22,487.88 L 737.42,490.27 L 737.00,491.51 L 735.85,493.87 L 735.23,495.03 L 733.73,497.19 L 732.93,498.24 L 731.10,500.17 L 730.15,501.11 L 728.04,502.78 L 726.96,503.58 L 724.61,504.97 L 723.41,505.62 L 720.87,506.69 L 719.57,507.18 L 716.87,507.89 L 712.69,508.54 L 707.50,508.97 L 713.72,507.52 L 715.11,507.20 L 717.71,506.42 L 718.98,506.01 L 721.35,505.07 L 722.50,504.58 L 724.62,503.47 L 725.65,502.89 L 727.53,501.62 L 728.44,500.96 L 730.07,499.52 L 730.86,498.78 L 732.24,497.18 L 732.90,496.36 L 734.03,494.60 L 735.45,491.78 L 735.78,491.00 L 736.28,489.69 L 736.51,489.08 L 736.81,488.08 L 736.92,487.62 L 736.97,486.88 L 736.97,486.55 L 736.75,486.04 L 736.61,485.81 L 736.10,485.49 L 735.80,485.35 L 734.97,485.18 L 734.52,485.11 L 733.34,485.03 L 731.17,485.00 L 730.46,485.00 L 729.29,485.01 L 728.74,485.02 L 727.83,485.08 L 726.97,485.14 L 725.80,485.51 L 725.27,485.76 L 724.40,486.63 L 722.92,488.75 L 722.25,489.78 L 720.18,491.91 L 719.65,492.41 L 718.55,493.27 L 717.00,494.25 L 715.74,494.88 L 712.68,495.63 L 711.10,495.91 L 707.73,495.99 L 706.05,495.94 L 702.80,495.34 L 698.54,493.72 L 697.52,493.14 L 695.42,491.27 L 694.38,490.24 L 692.45,487.74 L 691.53,486.45 L 690.04,483.72 L 688.58,479.75 L 688.45,479.18 L 688.33,478.32 L 688.29,477.93 L 688.31,477.42 L 688.34,477.21 L 688.49,477.02 L 688.57,476.97 M 878.91,505.18 L 878.90,505.24 L 878.56,505.58 L 877.56,506.42 L 877.03,506.85 L 875.88,507.49 L 874.56,507.85 L 874.41,507.83 L 873.79,507.74 L 873.44,507.68 L 872.49,507.54 L 871.48,507.38 L 869.00,507.00 L 864.50,506.30 L 870.17,506.15 L 871.73,506.11 L 874.71,505.87 L 875.39,505.81 L 876.51,505.66 L 877.67,505.42 L 878.09,505.29 L 878.61,505.15 L 878.82,505.10 M 751.50,505.83 L 752.53,505.87 L 754.41,506.03 L 755.31,506.12 L 756.80,506.33 L 757.48,506.45 L 758.41,506.70 L 759.00,507.08 L 759.00,507.31 L 758.50,507.60 L 758.15,507.72 L 756.78,507.80 L 756.37,507.80 L 755.35,507.78 L 754.80,507.76 L 753.48,507.69 L 752.78,507.64 L 751.13,507.51 L 750.26,507.44 L 748.25,507.27 L 747.35,507.19 L 745.99,507.00 L 745.38,506.91 L 744.59,506.72 L 744.26,506.62 L 744.01,506.43 L 743.94,506.34 L 744.19,506.17 L 744.37,506.09 L 745.08,505.96 L 745.49,505.90 L 746.63,505.82 L 747.25,505.78 L 748.79,505.76 M 916.59,506.05 L 922.24,506.14 L 923.58,506.16 L 926.06,506.22 L 927.25,506.26 L 929.39,506.33 L 930.41,506.37 L 932.14,506.46 L 932.95,506.50 L 934.22,506.60 L 934.80,506.64 L 935.54,506.74 L 936.00,506.90 L 936.00,506.95 L 935.54,507.05 L 935.24,507.10 L 934.22,507.19 L 933.65,507.23 L 932.14,507.31 L 931.33,507.35 L 929.39,507.41 L 928.37,507.44 L 926.06,507.49 L 924.86,507.52 L 922.24,507.55 L 913.50,507.58 L 910.41,507.57 L 904.76,507.49 L 903.42,507.46 L 900.94,507.40 L 899.75,507.37 L 897.61,507.29 L 896.59,507.25 L 894.86,507.17 L 894.05,507.12 L 892.78,507.03 L 892.20,506.98 L 891.46,506.88 L 891.16,506.83 L 891.00,506.72 L 891.00,506.66 L 891.46,506.56 L 891.76,506.51 L 892.78,506.42 L 893.35,506.38 L 894.86,506.30 L 895.67,506.26 L 897.61,506.20 L 898.63,506.17 L 900.94,506.12 L 902.14,506.09 L 904.76,506.06 L 913.50,506.04 M 567.09,482.67 L 567.97,484.43 L 568.29,485.25 L 568.68,486.38 L 568.84,486.87 L 568.93,487.45 L 568.94,487.69 L 568.74,487.91 L 568.11,488.00 L 567.86,488.00 L 567.29,487.23 L 567.01,486.76 L 566.56,485.38 L 566.33,484.49 L 566.22,483.25 L 566.21,482.73 L 566.45,482.31 L 566.61,482.21 M 565.53,476.37 L 566.10,477.29 L 566.38,477.77 L 566.68,478.75 L 566.80,479.23 L 566.79,480.01 L 566.75,480.36 L 566.45,480.69 L 566.27,480.77 L 565.73,480.40 L 565.53,480.20 L 565.22,479.27 L 565.03,477.58 L 565.04,477.10 L 565.07,476.49 L 565.10,476.25 L 565.22,476.10 L 565.29,476.08 M 673.41,466.56 L 673.54,466.70 L 673.73,467.28 L 673.82,467.63 L 673.93,468.60 L 674.00,470.44 L 674.00,471.60 L 673.96,473.17 L 673.93,473.85 L 673.78,474.57 L 673.68,474.84 L 673.37,474.88 L 673.19,474.82 L 672.67,474.33 L 672.54,474.20 L 672.34,473.73 L 672.25,473.46 L 672.12,472.77 L 672.02,472.04 L 672.02,470.28 L 672.06,469.41 L 672.33,467.87 L 672.41,467.53 L 672.62,466.99 L 673.00,466.50 L 673.15,466.41 M 551.81,449.62 L 552.12,450.02 L 552.81,451.29 L 553.16,451.99 L 553.89,453.71 L 554.24,454.60 L 554.93,456.55 L 555.60,458.53 L 556.52,462.33 L 556.70,463.20 L 556.86,464.65 L 556.76,466.19 L 556.69,466.40 L 556.53,466.62 L 556.45,466.69 L 556.28,466.64 L 556.10,466.52 L 555.73,465.50 L 555.65,465.22 L 555.45,464.45 L 555.35,464.03 L 555.12,463.06 L 554.46,460.00 L 554.36,459.52 L 554.05,458.35 L 553.87,457.74 L 553.44,456.43 L 551.97,452.75 L 551.48,451.72 L 550.94,450.10 L 550.85,449.76 L 550.81,449.30 L 550.98,449.00 L 551.21,449.00 M 566.70,461.20 L 566.86,461.33 L 566.94,461.77 L 566.94,462.03 L 566.70,462.71 L 566.00,464.00 L 565.80,464.30 L 565.52,464.65 L 565.39,464.78 L 565.22,464.76 L 565.15,464.71 L 565.06,464.31 L 565.03,464.05 L 565.02,463.25 L 565.01,462.63 L 565.30,461.66 L 566.00,461.00 L 566.31,461.00 M 737.71,450.29 L 738.00,451.00 L 738.00,451.27 L 737.71,451.71 L 737.00,452.00 L 736.73,452.00 L 736.29,451.71 L 736.11,451.52 L 736.00,451.00 L 736.00,450.72 L 736.29,450.29 L 737.00,450.00 L 737.27,450.00 M 852.86,434.13 L 853.47,434.18 L 854.83,434.34 L 856.21,434.52 L 858.95,435.04 L 859.58,435.18 L 860.63,435.48 L 861.76,435.92 L 862.28,436.23 L 862.69,436.61 L 862.73,436.69 L 862.62,436.78 L 862.54,436.82 L 862.16,436.84 L 861.94,436.84 L 861.27,436.79 L 860.90,436.75 L 859.91,436.62 L 859.37,436.55 L 858.05,436.34 L 857.34,436.23 L 855.65,435.95 L 854.32,435.73 L 852.04,435.17 L 851.54,435.03 L 850.79,434.77 L 850.15,434.43 L 850.03,434.30 L 850.29,434.14 L 850.49,434.08 L 851.27,434.05 L 851.71,434.05 Z" fill="rgba(0,12,39,1)"/>
<path d="M 813.71,506.29 L 814.00,507.00 L 814.00,507.27 L 813.71,507.71 L 813.00,508.00 L 812.72,508.00 L 812.29,507.71 L 812.11,507.52 L 812.00,507.00 L 812.00,506.72 L 812.29,506.29 L 813.00,506.00 L 813.27,506.00 Z" fill="rgba(0,1,8,1)"/>
<path d="M 114.67,528.33 L 114.64,528.31 L 114.60,527.97 L 114.58,527.75 L 114.53,527.03 L 114.51,526.62 L 114.47,525.54 L 114.45,524.96 L 114.41,523.55 L 114.39,522.80 L 114.35,521.06 L 114.33,520.16 L 114.29,518.13 L 114.28,517.08 L 114.24,514.77 L 114.23,513.58 L 114.20,511.01 L 114.17,508.38 L 114.11,502.43 L 114.09,499.35 L 114.05,492.62 L 114.04,489.17 L 114.01,481.83 L 114.00,470.29 L 114.00,412.91 L 116.45,410.45 L 118.91,408.00 L 209.34,408.00 L 212.08,408.00 L 217.30,408.00 L 219.87,408.00 L 224.78,408.00 L 227.20,408.00 L 231.80,408.00 L 234.06,408.00 L 238.36,408.01 L 240.48,408.01 L 244.49,408.01 L 246.47,408.01 L 250.21,408.02 L 253.88,408.02 L 260.44,408.04 L 263.60,408.05 L 269.18,408.07 L 271.86,408.08 L 276.56,408.12 L 278.80,408.14 L 282.69,408.18 L 284.54,408.20 L 287.70,408.26 L 289.20,408.29 L 291.71,408.37 L 292.90,408.40 L 294.85,408.49 L 295.76,408.54 L 297.23,408.65 L 297.91,408.70 L 298.98,408.83 L 299.47,408.90 L 300.23,409.05 L 300.57,409.12 L 301.09,409.30 L 302.14,409.91 L 302.66,410.33 L 303.41,411.23 L 303.75,411.73 L 304.21,413.14 L 304.31,413.55 L 304.48,414.54 L 304.56,415.07 L 304.70,416.37 L 304.77,417.06 L 304.90,418.71 L 305.09,421.66 L 305.16,422.78 L 305.28,425.73 L 305.34,427.31 L 305.45,431.06 L 305.50,433.02 L 305.58,437.42 L 305.62,439.70 L 305.69,444.62 L 305.72,447.14 L 305.78,452.45 L 305.80,455.14 L 305.83,460.69 L 305.86,466.28 L 305.87,477.58 L 305.87,480.38 L 305.85,485.82 L 305.84,488.51 L 305.81,493.63 L 305.79,496.15 L 305.74,500.82 L 305.71,503.09 L 305.65,507.17 L 305.61,509.12 L 305.53,512.47 L 305.48,514.04 L 305.38,516.51 L 305.36,517.07 L 305.30,518.00 L 305.27,518.43 L 305.21,519.09 L 305.18,519.39 L 305.12,519.77 L 305.02,520.00 L 304.74,520.00 L 304.30,520.35 L 304.00,521.19 L 304.00,521.35 L 303.82,521.91 L 303.71,522.22 L 303.34,523.00 L 301.75,525.68 L 299.50,528.99 L 207.42,528.99 L 201.09,528.99 L 188.91,528.98 L 182.92,528.97 L 171.61,528.94 L 168.85,528.93 L 163.54,528.92 L 160.92,528.91 L 155.91,528.88 L 153.45,528.87 L 148.78,528.84 L 146.49,528.83 L 142.19,528.80 L 140.09,528.79 L 136.19,528.76 L 134.29,528.74 L 130.82,528.70 L 129.14,528.69 L 126.14,528.65 L 124.70,528.63 L 122.19,528.59 L 121.00,528.57 L 119.02,528.53 L 118.10,528.51 L 116.68,528.47 L 116.04,528.45 L 115.21,528.40 L 114.87,528.38 Z" fill="rgba(0,217,226,1)"/>
</g>
</svg>