<?xml version="1.0" standalone="no"?>
<!DOCTYPE svg PUBLIC "-//W3C//DTD SVG 20010904//EN"
 "http://www.w3.org/TR/2001/REC-SVG-20010904/DTD/svg10.dtd">
<svg version="1.0" xmlns="http://www.w3.org/2000/svg"
 width="645.000000pt" height="615.000000pt" viewBox="0 0 645.000000 615.000000"
 preserveAspectRatio="xMidYMid meet">

<g transform="translate(0.000000,615.000000) scale(0.100000,-0.100000)"
fill="#000000" stroke="none">
<path d="M3145 5870 c-143 -66 -393 -185 -555 -264 -272 -132 -295 -145 -301
-172 -9 -40 -9 -1133 0 -1164 6 -21 24 -30 126 -65 66 -22 172 -65 235 -94
494 -229 502 -231 920 -238 249 -4 293 -7 346 -24 34 -11 70 -29 79 -39 18
-20 19 -20 64 7 169 98 496 337 564 412 l37 41 0 554 c0 304 -3 568 -6 586
-10 45 -10 45 -419 230 -434 197 -769 342 -800 346 -23 4 -91 -24 -290 -116z
m733 -119 c31 -16 76 -46 100 -67 l44 -39 -156 -73 c-86 -40 -231 -109 -323
-153 -93 -44 -251 -119 -353 -168 l-185 -88 -3 -186 c-1 -103 -4 -187 -6 -187
-1 0 -61 26 -132 58 l-129 58 -7 85 c-11 148 -9 276 5 286 6 6 120 60 252 121
132 61 368 172 525 246 157 74 291 135 298 135 7 1 38 -12 70 -28z"/>
<path d="M1045 5358 c-33 -19 -44 -41 -45 -85 0 -34 5 -46 31 -67 l31 -26 457
0 c453 0 459 0 485 21 38 30 49 64 36 105 -22 65 -10 64 -517 64 -326 -1 -464
-4 -478 -12z"/>
<path d="M669 4912 c-44 -39 -46 -99 -6 -139 l27 -28 575 0 575 0 25 25 c35
35 40 77 15 118 -11 18 -32 37 -46 42 -15 6 -244 10 -579 10 l-555 0 -31 -28z"/>
<path d="M1059 4471 c-45 -45 -36 -126 18 -150 16 -7 128 -11 334 -11 l311 0
29 29 c40 41 40 91 0 132 l-29 29 -317 0 -317 0 -29 -29z"/>
<path d="M4930 4318 c-28 -14 -115 -92 -235 -213 -243 -244 -349 -328 -544
-432 -52 -28 -53 -29 -56 -78 -7 -157 -219 -336 -479 -404 -239 -63 -446 -49
-803 55 -164 47 -283 91 -283 104 0 28 221 8 561 -50 182 -31 392 -25 554 17
153 39 315 155 330 236 9 49 -17 120 -53 145 -56 39 -87 42 -406 42 -171 0
-340 5 -376 10 -100 16 -211 55 -370 130 -367 172 -458 200 -675 207 -177 6
-254 -6 -403 -65 -128 -50 -207 -98 -393 -235 -214 -158 -445 -293 -617 -359
-31 -12 -42 -22 -42 -38 0 -18 131 -265 367 -689 38 -68 76 -129 84 -134 12
-7 50 11 155 73 178 107 264 146 383 176 172 44 354 31 582 -42 448 -142 758
-198 964 -173 241 28 578 156 839 317 412 254 785 631 1035 1046 81 133 105
193 106 258 0 50 -4 61 -27 85 -39 39 -133 44 -198 11z"/>
<path d="M1043 2189 c-155 -49 -244 -181 -245 -367 -2 -179 83 -311 236 -368
38 -14 77 -19 157 -19 102 0 107 1 183 38 64 32 85 49 120 97 59 80 80 159 74
282 -5 105 -26 164 -82 232 -88 108 -286 155 -443 105z m243 -159 c78 -34 122
-126 111 -239 -12 -139 -93 -208 -232 -199 -114 7 -179 74 -191 197 -11 100
25 194 90 237 53 34 147 36 222 4z"/>
<path d="M1938 2196 c-145 -42 -237 -154 -257 -312 -24 -195 51 -351 201 -420
58 -27 72 -29 178 -29 96 1 123 5 162 22 62 29 131 93 156 146 22 47 46 176
40 222 l-3 30 -172 3 -173 2 0 -70 0 -70 63 -1 c34 -1 72 0 85 1 31 2 29 -30
-4 -70 -89 -105 -271 -83 -335 42 -27 52 -35 141 -19 206 14 58 63 122 114
146 42 20 115 21 159 2 31 -12 80 -61 89 -86 2 -8 24 -8 75 1 102 17 103 18
69 84 -55 105 -146 156 -290 161 -57 2 -109 -2 -138 -10z"/>
<path d="M3103 2196 c-104 -34 -177 -98 -222 -196 -37 -80 -42 -230 -11 -331
19 -63 30 -81 84 -135 54 -54 72 -65 135 -84 184 -56 368 11 437 160 44 94 47
90 -48 90 l-83 0 -22 -34 c-27 -42 -96 -76 -154 -76 -58 0 -127 35 -156 79
-82 123 -38 326 80 370 42 16 122 13 162 -6 19 -9 46 -34 60 -55 l25 -38 80 0
c44 0 80 4 80 8 0 32 -39 110 -75 150 -61 68 -142 103 -249 108 -52 3 -96 -1
-123 -10z"/>
<path d="M280 1815 l0 -375 228 0 c126 0 231 2 233 4 2 2 3 38 1 80 l-4 76
-146 0 -147 0 3 295 3 295 -86 0 -85 0 0 -375z"/>
<path d="M2550 1815 l0 -375 85 0 85 0 0 375 -1 375 -84 0 -85 0 0 -375z"/>
<path d="M3832 2103 c-17 -49 -76 -215 -132 -371 -55 -156 -100 -285 -100
-287 0 -3 38 -5 84 -5 l84 0 24 73 25 72 140 3 141 3 24 -73 25 -73 92 -3 c51
-1 91 1 89 6 -1 5 -61 174 -133 375 l-130 367 -101 0 -101 0 -31 -87z m173
-232 c20 -63 39 -120 42 -128 4 -10 -15 -13 -90 -13 l-96 0 47 135 c26 74 50
131 53 127 4 -4 23 -58 44 -121z"/>
<path d="M4440 1815 l0 -375 83 0 82 0 0 132 0 133 52 3 51 3 69 -135 68 -136
88 0 c48 0 87 2 87 3 0 2 -34 71 -76 152 -57 110 -73 150 -63 153 8 3 33 24
56 48 94 97 76 276 -36 351 -54 37 -96 43 -283 43 l-178 0 0 -375z m340 217
c68 -33 76 -112 17 -156 -22 -17 -46 -22 -113 -25 l-84 -3 0 101 0 101 73 0
c48 0 83 -6 107 -18z"/>
<path d="M5140 1815 l0 -375 240 0 240 0 0 75 0 75 -155 0 -155 0 0 80 0 80
135 0 135 0 0 70 0 70 -135 0 -135 0 0 80 0 80 150 0 150 0 0 70 0 70 -235 0
-235 0 0 -375z"/>
<path d="M1565 1121 c-134 -61 -152 -246 -32 -335 42 -31 150 -35 205 -7 63
32 96 88 96 164 -1 91 -37 148 -116 182 -49 20 -104 19 -153 -4z m158 -92 c47
-51 34 -155 -24 -185 -47 -24 -97 -18 -130 15 -54 55 -34 173 35 202 36 14 89
1 119 -32z"/>
<path d="M2114 1121 c-23 -10 -54 -36 -70 -56 -55 -73 -43 -208 25 -269 34
-31 115 -47 172 -35 80 17 118 62 134 157 l7 42 -86 0 -86 0 0 -30 c0 -28 2
-30 40 -30 48 0 53 -18 14 -49 -29 -23 -92 -28 -125 -11 -55 30 -65 148 -17
197 15 15 41 27 66 30 36 5 45 2 70 -24 25 -24 36 -28 66 -25 41 5 45 18 15
56 -46 59 -153 81 -225 47z"/>
<path d="M2930 1134 c-79 -29 -112 -95 -78 -157 16 -32 35 -44 105 -67 34 -12
64 -28 67 -36 9 -24 -4 -42 -35 -49 -34 -8 -79 16 -79 41 0 13 -7 15 -31 10
-17 -3 -35 -6 -40 -6 -18 0 -8 -39 16 -68 49 -58 170 -62 224 -7 20 20 26 35
26 70 0 58 -30 89 -116 118 -52 18 -65 26 -67 46 -2 13 2 28 10 32 24 16 67
10 80 -11 9 -14 24 -20 50 -20 21 0 38 3 38 6 0 18 -33 71 -50 82 -23 14 -97
24 -120 16z"/>
<path d="M4123 1129 c-80 -24 -131 -114 -119 -213 11 -98 80 -156 183 -156 69
0 112 23 151 80 l24 35 -42 3 c-32 3 -47 -2 -71 -22 -56 -48 -134 -28 -160 41
-45 119 78 227 163 143 21 -22 39 -30 64 -30 39 0 42 11 15 56 -33 55 -135 86
-208 63z"/>
<path d="M4594 1126 c-43 -19 -64 -53 -64 -104 0 -57 29 -85 109 -108 75 -21
96 -47 61 -76 -12 -10 -28 -18 -35 -18 -29 0 -64 20 -70 39 -6 21 -47 29 -72
13 -17 -11 9 -66 41 -87 96 -63 226 -14 226 84 0 54 -23 77 -110 109 -77 28
-94 48 -70 77 19 23 77 19 92 -5 17 -27 78 -28 78 -2 0 45 -66 92 -127 92 -15
-1 -42 -7 -59 -14z"/>
<path d="M1070 945 l0 -185 121 0 120 0 -3 38 -3 37 -77 3 -78 3 0 144 0 145
-40 0 -40 0 0 -185z"/>
<path d="M2570 945 l0 -185 40 0 40 0 0 185 0 185 -40 0 -40 0 0 -185z"/>
<path d="M3260 1095 l0 -35 55 0 55 0 0 -150 0 -150 40 0 40 0 0 150 0 150 55
0 55 0 0 35 0 35 -150 0 -150 0 0 -35z"/>
<path d="M3740 945 l0 -185 40 0 40 0 0 185 0 185 -40 0 -40 0 0 -185z"/>
</g>
</svg>
